# xmcd
#
# Track frame offsets:
#	150
#	17481
#	33343
#	50795
#	68595
#	84737
#	105752
#	121233
#	138298
#	151641
#	170534
#	185165
#	202147
#	219089
#	234458
#	251447
#	267309
#	282850
#	298305
#	315123
#
# Disc length: 4428 seconds
#
# Revision: 0
# Processed by: cddbd v1.5.2PL0 Copyright (c) Steve Scherf et al.
# Submitted via: EasyCDDAExtractor 11.5.0.1
#
DISCID=13114a14
DTITLE=Various Artist - NCT 104
DYEAR=2007
DGENRE=Country
TTITLE0=Brooks and Dunn - God Must Be Busy
TTITLE1=Billy Ray Cyrus ft. Miley Cyrus - Ready, Set, Don't Go
TTITLE2=Reba McIntyre ft. Justin Timberlake - The Only Promise That Remains
TTITLE3=Phil Vassar - Love Is A Beautiful Thing
TTITLE4=Stephen Cochran - Everything We Knew
TTITLE5=Alan Jackson - Small Town Southern Man
TTITLE6=Terri Clark - In My Next Life
TTITLE7=Star De Azlan - She's Pretty
TTITLE8=Jack Ingram - Maybe She'll Get Lonely
TTITLE9=Cody McCarver - Through God's Eyes
TTITLE10=Whiskey Falls - Falling Into You
TTITLE11=Emma Mae Jacob - What If We Fly
TTITLE12=Josh Gracin - We Weren't Crazy
TTITLE13=Ansel Brown - Mine's Bigger
TTITLE14=Lila McCann - That's What Angels Do
TTITLE15=Kevin Fowler - Long Line Of Losers
TTITLE16=Taylor Swift - Last Christmas
TTITLE17=Kellie Pickler - Santa Baby
TTITLE18=Martina McBride - O Holy Night
TTITLE19=Toby Keith - Little Drummer Boy
EXTD=
EXTT0=
EXTT1=
EXTT2=
EXTT3=
EXTT4=
EXTT5=
EXTT6=
EXTT7=
EXTT8=
EXTT9=
EXTT10=
EXTT11=
EXTT12=
EXTT13=
EXTT14=
EXTT15=
EXTT16=
EXTT17=
EXTT18=
EXTT19=
PLAYORDER=
